<svg xmlns="http://www.w3.org/2000/svg" id="Capa_1" version="1.1" viewBox="0 0 1368.9 506.7"><defs><style>.st0{fill:#0bbcb6}</style></defs><path d="M360.4 136.1V82.5c0-32.8-26.6-59.4-59.5-59.4h-95.4c-32.8 0-59.5 26.6-59.5 59.4v53.6c28.5-25.5 66-41 107.1-41s78.7 15.5 107.1 41ZM146.1 375.8v48.4c0 32.8 26.6 59.4 59.5 59.4H301c32.8 0 59.5-26.6 59.5-59.4v-48.4c-28.5 25.5-66 41-107.1 41s-78.7-15.5-107.1-41ZM424.2 146.2h-53.4c25.7 27.4 41.8 63.9 43.3 103.9 0 1.9.1 3.9.1 5.8v104.5h10c32.8 0 59.4-26.6 59.4-59.4v-95.4c0-32.8-26.6-59.4-59.4-59.4M22.9 205.6V301c0 32.8 26.6 59.4 59.4 59.4h10V255.9c0-1.9 0-3.9.1-5.8 1.4-40.1 17.6-76.5 43.3-103.9H82.3c-32.8 0-59.4 26.6-59.4 59.4M253.3 147.4c-53.9 0-98.7 39.5-107.1 91-.9 5.7-1.4 11.6-1.4 17.5s.5 11.8 1.4 17.5c6.8 41.8 37.6 75.7 77.7 87 9.4 2.6 19.2 4 29.4 4s20-1.4 29.4-4c40.2-11.3 70.9-45.2 77.7-87 .9-5.7 1.4-11.5 1.4-17.5s-.5-11.8-1.4-17.5c-8.4-51.6-53.2-91.1-107.1-91.1ZM721.8 243.1c-11.8 15.2-27.3 22.8-46.6 22.8s-29.2-5.4-40-16.2Q619 233.5 619 209.5c0-24 5.3-29 15.8-40s23.5-16.5 39.1-16.5 28.7 5.6 40 16.9l20.5-21.6c-16.2-15.7-36.2-23.5-60.2-23.5s-46 8.1-62.3 24.4c-16.3 16.2-24.5 36.3-24.5 60.3s8.2 44.1 24.6 60.3 37.3 24.4 62.7 24.4 27.9-2.9 39.9-8.6 21.8-13.4 29.3-22.9L722 243.2ZM766 124.8h30.6v167H766zM883.7 122.4h-33l-16.5 37.7h21.2zM831.9 177.7h30.6v114.1h-30.6zM959.4 175.3c-12.1 0-22.8 3.8-32.2 11.5v-9.2h-29.4v114.1h30.6v-74.1c2.5-3.6 6.3-6.9 11.4-9.8s10.5-4.4 16.4-4.4 12.9 2.1 17.2 6.4c4.5 4.6 6.8 11.7 6.8 21.4v60.5h30.6v-58.1c0-17.4-3.9-30.7-11.8-40-10.2-12.2-23.4-18.4-39.5-18.4ZM1043.6 177.7h30.6v114.1h-30.6zM1058.9 117.7c-5.5 0-10.2 1.9-14.1 5.6-3.9 3.8-5.9 8.4-5.9 13.9s2 10.1 5.9 13.9 8.6 5.6 14.1 5.6 10.2-1.9 14.1-5.6c3.9-3.8 5.9-8.4 5.9-13.9s-2-10.1-5.9-13.9-8.6-5.6-14.1-5.6M1178.1 261.6c-4.8 2.9-10.1 4.4-15.9 4.4-9.3 0-16.8-2.9-22.7-8.8s-8.8-13.3-8.8-22.2 2.9-16.2 8.8-22.2 13.2-9.1 22-9.1 19.4 4.6 26.4 13.6l21.6-19.1c-5.5-6.9-12.4-12.4-20.8-16.6s-17.5-6.2-27.2-6.2c-17.4 0-32 5.8-43.8 17.3s-17.6 25.6-17.6 42.2 5.8 30.7 17.4 42.1c11.6 11.5 26.2 17.2 43.8 17.2s38.9-8.5 51.8-25.6l-23.5-17.6c-2.8 4.2-6.6 7.8-11.4 10.7ZM1316.5 177.7v9.2c-9.4-7.7-20.5-11.5-33.4-11.5s-28.7 5.7-39.6 17.2-16.4 25.6-16.4 42.3 4.9 28.7 14.6 40c11.1 12.9 25.5 19.3 43.1 19.3s22.7-3.8 31.8-11.5v9.2h29.4V177.8h-29.4Zm-1.1 74.1c-6.6 9.4-15.8 14.1-27.5 14.1s-15.8-2.9-21.5-8.8-8.6-13.3-8.6-22.2 2.7-15.8 8.2-22 12.5-9.3 21.2-9.3 21.2 4.7 28.2 14.1zM671.2 332.3l-26.5 61.9h12.5l5.8-13.7h24.8l5.8 13.7h12.5l-26.5-61.9zm-3.7 37.5 7.9-18.3 7.9 18.3h-15.7ZM750.3 355.6v-4.3h-11.1v42.9h11.5v-27c.8-1.5 2.2-2.9 4.1-4.2s4-1.9 6.3-1.9 3.3.1 4.2.4l1.3-10.7c-1.7-.2-2.9-.4-3.9-.4-5.5 0-9.6 1.7-12.5 5.2ZM818.1 350.4c-6.2 0-11.2 2.2-15.1 6.5-3.9 4.4-5.8 9.6-5.8 15.8s2.1 12 6.4 16.1c4.2 4.1 9.6 6.1 16.1 6.1s6.6-.7 9.8-2c3.2-1.4 5.8-3.2 7.8-5.7l-6.5-6.5c-3.1 3.3-6.7 5-10.8 5s-5.7-.9-7.9-2.8-3.4-4.3-3.7-7.3h29.7q.3-1.35.3-3.3c0-6.1-1.9-11.2-5.7-15.5s-8.7-6.4-14.5-6.4Zm-9.2 16.8c.3-2 1.3-3.8 3.1-5.3s3.8-2.3 6.1-2.3 4.2.8 5.8 2.3 2.5 3.3 2.7 5.3zM905.5 354.7c-3.5-2.9-7.7-4.3-12.6-4.3s-10.8 2.2-14.9 6.5-6.1 9.6-6.1 15.9 1.8 10.8 5.5 15c4.2 4.8 9.6 7.3 16.2 7.3s8.5-1.4 11.9-4.3v3.4h11.1v-42.9h-11.1zm-.4 24.4c-2.5 3.5-5.9 5.3-10.3 5.3s-5.9-1.1-8.1-3.3-3.2-5-3.2-8.4 1-5.9 3.1-8.3c2.1-2.3 4.7-3.5 8-3.5s8 1.8 10.6 5.3V379ZM979.6 350.4c-4.5 0-8.6 1.4-12.1 4.3v-3.4h-11.1v42.9h11.5v-27.9c.9-1.4 2.4-2.6 4.3-3.7s4-1.6 6.1-1.6 4.9.8 6.5 2.4c1.7 1.7 2.6 4.4 2.6 8v22.7h11.5v-21.8c0-6.5-1.5-11.6-4.4-15-3.8-4.6-8.8-6.9-14.9-6.9M1067.4 354.4c-3.4-2.7-7.4-4-12.1-4s-10.8 2.2-14.9 6.5-6.1 9.6-6.1 15.9 1.8 10.8 5.5 15c4.2 4.8 9.6 7.3 16.2 7.3s8.5-1.4 11.9-4.3v3.4h11.1v-62.8h-11.5v23Zm0 24.7c-2.5 3.5-5.9 5.3-10.3 5.3s-5.9-1.1-8.1-3.3-3.2-5-3.2-8.4 1-5.9 3.1-8.3c2.1-2.3 4.7-3.5 8-3.5s8 1.8 10.6 5.3V379ZM1118.7 351.3h11.5v42.9h-11.5zM1124.4 328.7c-2.1 0-3.8.7-5.3 2.1s-2.2 3.2-2.2 5.2.7 3.8 2.2 5.2 3.2 2.1 5.3 2.1 3.8-.7 5.3-2.1 2.2-3.2 2.2-5.2-.7-3.8-2.2-5.2-3.2-2.1-5.3-2.1M1193.1 350.4c-4.5 0-8.6 1.4-12.1 4.3v-3.4h-11.1v42.9h11.5v-27.9c.9-1.4 2.4-2.6 4.3-3.7s4-1.6 6.1-1.6 4.9.8 6.5 2.4c1.7 1.7 2.6 4.4 2.6 8v22.7h11.5v-21.8c0-6.5-1.5-11.6-4.4-15-3.8-4.6-8.8-6.9-14.9-6.9M1281.4 354.7c-3.5-2.9-7.7-4.3-12.6-4.3s-10.8 2.2-14.9 6.5-6.1 9.6-6.1 15.9 1.8 10.8 5.5 15c4.2 4.8 9.6 7.3 16.2 7.3s8.5-1.4 11.9-4.3v3.4h11.1v-42.9h-11.1zm-.5 24.4c-2.5 3.5-5.9 5.3-10.3 5.3s-5.9-1.1-8.1-3.3-3.2-5-3.2-8.4 1-5.9 3.1-8.3c2.1-2.3 4.7-3.5 8-3.5s8 1.8 10.6 5.3V379Z" class="st0"/></svg>